<svg width="32" height="32" viewBox="0 0 32 32" fill="none" xmlns="http://www.w3.org/2000/svg">
<path d="M6.93938 27.9442C9.45854 29.86 12.5981 31 16 31C19.4019 31 22.5413 29.86 25.0606 27.9442C23.2296 24.6973 19.8127 22.6667 16 22.6667C12.1873 22.6667 8.77042 24.6973 6.93938 27.9442Z" stroke="#8FBEDF" stroke-width="1.3"/>
<path d="M21.9327 19.7471C24.405 20.8412 26.5344 22.6135 28.0708 24.8923C29.9102 22.4021 31 19.3265 31 16C31 7.72896 24.271 1 16 1C7.72896 1 1 7.72896 1 16C1 19.3265 2.08979 22.4021 3.92917 24.8923C5.46562 22.6135 7.595 20.8412 10.0673 19.7471C9.08604 18.479 8.5 16.8904 8.5 15.1667V13.8125C8.5 9.67688 11.8644 6.3125 16 6.3125C20.1356 6.3125 23.5 9.67688 23.5 13.8125V15.1667C23.5 16.8904 22.914 18.479 21.9327 19.7471Z" stroke="#8FBEDF" stroke-width="1.3"/>
</svg>
