<svg width="25" height="30" viewBox="0 0 25 30" fill="none" xmlns="http://www.w3.org/2000/svg">
<path d="M24.2585 8.71606C24.582 8.71606 24.8444 8.45373 24.8444 8.13011V1.75786C24.8444 0.788576 24.0559 0 23.0866 0H1.75786C0.788576 0 0 0.788576 0 1.75786V28.243C0 29.2122 0.788576 30.0008 1.75786 30.0008H23.0866C24.0559 30.0008 24.8444 29.2122 24.8444 28.243V23.9261C24.8444 23.6025 24.582 23.3402 24.2585 23.3402C23.9349 23.3402 23.6725 23.6025 23.6725 23.9261V28.243C23.6725 28.5661 23.4097 28.8289 23.0866 28.8289H1.75786C1.43477 28.8289 1.17191 28.5661 1.17191 28.243V1.75786C1.17191 1.43477 1.43477 1.17191 1.75786 1.17191H23.0866C23.4097 1.17191 23.6725 1.43477 23.6725 1.75786V8.13011C23.6725 8.45373 23.9349 8.71606 24.2585 8.71606Z" fill="#8FBEDF"/>
<path d="M24.8444 8.13011C24.8444 8.45373 24.582 8.71606 24.2585 8.71606C23.9349 8.71606 23.6725 8.45373 23.6725 8.13011V23.9261C23.6725 23.6025 23.9349 23.3402 24.2585 23.3402C24.582 23.3402 24.8444 23.6025 24.8444 23.9261V8.13011Z" fill="#8FBEDF"/>
<path d="M12.422 3.16406C9.44954 3.16406 7.03125 5.58235 7.03125 8.55484C7.03125 10.0969 7.68224 11.4896 8.7236 12.473C8.74311 12.4939 8.76386 12.5137 8.78653 12.5316C9.7458 13.4093 11.0224 13.9455 12.422 13.9455C13.8215 13.9455 15.0981 13.4093 16.0574 12.5316C16.0801 12.5137 16.1008 12.4938 16.1203 12.473C17.1618 11.4896 17.8128 10.0969 17.8128 8.55484C17.8128 5.58235 15.3945 3.16406 12.422 3.16406ZM12.422 12.7737C11.4652 12.7737 10.5822 12.4531 9.87365 11.9142C10.3886 11.001 11.3497 10.4299 12.422 10.4299C13.4944 10.4299 14.4554 11.001 14.9704 11.9142C14.2618 12.4531 13.3788 12.7737 12.422 12.7737ZM11.4845 8.32045V7.93958C11.4845 7.42266 11.9051 7.00206 12.422 7.00206C12.939 7.00206 13.3595 7.42266 13.3595 7.93958V8.32045C13.3595 8.83738 12.939 9.25798 12.422 9.25798C11.9051 9.25798 11.4845 8.83738 11.4845 8.32045ZM15.817 11.0559C15.3849 10.4149 14.786 9.91647 14.0906 9.60873C14.3666 9.25206 14.5315 8.80527 14.5315 8.32045V7.93958C14.5315 6.77641 13.5852 5.83015 12.422 5.83015C11.2588 5.83015 10.3126 6.77641 10.3126 7.93958V8.32045C10.3126 8.80527 10.4774 9.25206 10.7534 9.60873C10.0581 9.91647 9.45915 10.4149 9.02701 11.0559C8.50967 10.3555 8.20316 9.49043 8.20316 8.55484C8.20316 6.22854 10.0957 4.33597 12.422 4.33597C14.7483 4.33597 16.6409 6.22854 16.6409 8.55484C16.6409 9.49043 16.3344 10.3555 15.817 11.0559Z" fill="#8FBEDF"/>
<path d="M14.6713 19.3361L11.1765 21.3539C10.8191 21.5602 10.6605 21.9547 10.8223 22.235C10.9841 22.5153 11.4051 22.5751 11.7624 22.3688L15.2573 20.351C15.6147 20.1447 15.7733 19.7502 15.6115 19.4699C15.4497 19.1897 15.0287 19.1298 14.6713 19.3361Z" fill="#8FBEDF"/>
<path d="M11.8282 21.6491L10.2461 18.9088C10.0843 18.6286 9.72594 18.5325 9.44567 18.6943C9.16541 18.8562 9.06942 19.2146 9.2312 19.4948L10.8133 22.235C10.9751 22.5152 11.3334 22.6113 11.6137 22.4495C11.894 22.2877 11.99 21.9293 11.8282 21.6491Z" fill="#8FBEDF"/>
</svg>
