<svg width="30" height="30" viewBox="0 0 30 30" fill="none" xmlns="http://www.w3.org/2000/svg">
<path d="M24.2585 8.71606C24.582 8.71606 24.8444 8.45373 24.8444 8.13011V1.75786C24.8444 0.788576 24.0559 0 23.0866 0H1.75786C0.788576 0 0 0.788576 0 1.75786V28.243C0 29.2122 0.788576 30.0008 1.75786 30.0008H23.0866C24.0559 30.0008 24.8444 29.2122 24.8444 28.243V23.9261C24.8444 23.6025 24.582 23.3402 24.2585 23.3402C23.9349 23.3402 23.6725 23.6025 23.6725 23.9261V28.243C23.6725 28.5661 23.4097 28.8289 23.0866 28.8289H1.75786C1.43477 28.8289 1.17191 28.5661 1.17191 28.243V1.75786C1.17191 1.43477 1.43477 1.17191 1.75786 1.17191H23.0866C23.4097 1.17191 23.6725 1.43477 23.6725 1.75786V8.13011C23.6725 8.45373 23.9349 8.71606 24.2585 8.71606Z" fill="#8FBEDF"/>
<path d="M12.422 3.16406C9.44954 3.16406 7.03125 5.58235 7.03125 8.55484C7.03125 10.0969 7.68224 11.4896 8.7236 12.473C8.74311 12.4939 8.76386 12.5137 8.78653 12.5316C9.7458 13.4093 11.0224 13.9455 12.422 13.9455C13.8215 13.9455 15.0981 13.4093 16.0574 12.5316C16.0801 12.5137 16.1008 12.4938 16.1203 12.473C17.1618 11.4896 17.8128 10.0969 17.8128 8.55484C17.8128 5.58235 15.3945 3.16406 12.422 3.16406ZM12.422 12.7737C11.4652 12.7737 10.5822 12.4531 9.87365 11.9142C10.3886 11.001 11.3497 10.4299 12.422 10.4299C13.4944 10.4299 14.4554 11.001 14.9704 11.9142C14.2618 12.4531 13.3788 12.7737 12.422 12.7737ZM11.4845 8.32045V7.93958C11.4845 7.42266 11.9051 7.00206 12.422 7.00206C12.939 7.00206 13.3595 7.42266 13.3595 7.93958V8.32045C13.3595 8.83738 12.939 9.25798 12.422 9.25798C11.9051 9.25798 11.4845 8.83738 11.4845 8.32045ZM15.817 11.0559C15.3849 10.4149 14.786 9.91647 14.0906 9.60873C14.3666 9.25206 14.5315 8.80527 14.5315 8.32045V7.93958C14.5315 6.77641 13.5852 5.83015 12.422 5.83015C11.2588 5.83015 10.3126 6.77641 10.3126 7.93958V8.32045C10.3126 8.80527 10.4774 9.25206 10.7534 9.60873C10.0581 9.91647 9.45915 10.4149 9.02701 11.0559C8.50967 10.3555 8.20316 9.49043 8.20316 8.55484C8.20316 6.22854 10.0957 4.33597 12.422 4.33597C14.7483 4.33597 16.6409 6.22854 16.6409 8.55484C16.6409 9.49043 16.3344 10.3555 15.817 11.0559Z" fill="#8FBEDF"/>
<path d="M15.5865 25.6648H12.4224C12.0988 25.6648 11.8364 25.9271 11.8364 26.2507C11.8364 26.5744 12.0988 26.8367 12.4224 26.8367H15.5865C15.9101 26.8367 16.1725 26.5744 16.1725 26.2507C16.1725 25.9271 15.9101 25.6648 15.5865 25.6648Z" fill="#8FBEDF"/>
<path d="M15.5862 22.3835H7.26564C6.94208 22.3835 6.67969 22.6459 6.67969 22.9695C6.67969 23.2931 6.94208 23.5555 7.26564 23.5555H15.5862C15.9097 23.5555 16.1721 23.2931 16.1721 22.9695C16.1721 22.6459 15.9097 22.3835 15.5862 22.3835Z" fill="#8FBEDF"/>
<path d="M15.5862 19.1021H7.26564C6.94208 19.1021 6.67969 19.3644 6.67969 19.688C6.67969 20.0116 6.94208 20.274 7.26564 20.274H15.5862C15.9097 20.274 16.1721 20.0116 16.1721 19.688C16.1721 19.3644 15.9097 19.1021 15.5862 19.1021Z" fill="#8FBEDF"/>
<path d="M5.17751 15.9925C5.06858 15.8835 4.9174 15.8208 4.76271 15.8208C4.60855 15.8208 4.45737 15.8835 4.34844 15.9925C4.23945 16.1015 4.17676 16.2526 4.17676 16.4068C4.17676 16.5609 4.2394 16.712 4.34844 16.821C4.45802 16.93 4.60855 16.9927 4.76271 16.9927C4.9174 16.9927 5.06799 16.93 5.17751 16.821C5.28649 16.712 5.34925 16.5609 5.34925 16.4068C5.34925 16.2526 5.28655 16.1015 5.17751 15.9925Z" fill="#8FBEDF"/>
<path d="M5.17751 19.2737C5.06799 19.1647 4.9174 19.1021 4.76271 19.1021C4.60855 19.1021 4.45802 19.1647 4.34844 19.2737C4.23945 19.3827 4.17676 19.5339 4.17676 19.688C4.17676 19.8421 4.2394 19.9933 4.34844 20.1023C4.45802 20.2113 4.60855 20.274 4.76271 20.274C4.9174 20.274 5.06799 20.2113 5.17751 20.1023C5.28649 19.9933 5.34925 19.8421 5.34925 19.688C5.34925 19.5339 5.28655 19.3827 5.17751 19.2737Z" fill="#8FBEDF"/>
<path d="M5.17751 22.5552C5.06799 22.4462 4.9174 22.3835 4.76271 22.3835C4.60855 22.3835 4.45802 22.4462 4.34844 22.5552C4.23945 22.6642 4.17676 22.8154 4.17676 22.9695C4.17676 23.1236 4.2394 23.2748 4.34844 23.3838C4.45737 23.4928 4.60855 23.5555 4.76271 23.5555C4.9174 23.5555 5.06858 23.4928 5.17751 23.3838C5.28649 23.2748 5.34925 23.1236 5.34925 22.9695C5.34925 22.8154 5.28655 22.6642 5.17751 22.5552Z" fill="#8FBEDF"/>
<path d="M15.5862 15.8208H7.26564C6.94208 15.8208 6.67969 16.0831 6.67969 16.4068C6.67969 16.7304 6.94208 16.9927 7.26564 16.9927H15.5862C15.9097 16.9927 16.1721 16.7304 16.1721 16.4068C16.1721 16.0831 15.9097 15.8208 15.5862 15.8208Z" fill="#8FBEDF"/>
<path d="M28.7701 7.63618C28.2008 7.30752 27.5377 7.22021 26.9026 7.39031C26.2677 7.56047 25.7369 7.96771 25.4083 8.53697L18.0346 21.3086C17.9942 21.3786 17.9686 21.4562 17.9597 21.5366L17.4406 26.1858C17.4148 26.4171 17.5284 26.6418 17.73 26.7582C17.821 26.8107 17.9221 26.8368 18.0229 26.8368C18.1455 26.8368 18.2676 26.7984 18.3704 26.7226L22.1372 23.9485C22.2023 23.9006 22.2568 23.8397 22.2971 23.7697L29.6708 10.998C30.3494 9.82284 29.9453 8.31471 28.7701 7.63618ZM18.7539 24.9847L19.0249 22.557L20.7208 23.5361L18.7539 24.9847ZM21.5752 22.6762L19.3425 21.3871L25.2597 11.1382L27.4925 12.4273L21.5752 22.6762ZM28.656 10.412L28.0784 11.4124L25.8456 10.1233L26.4232 9.12292C26.5953 8.82473 26.8733 8.61144 27.2059 8.52232C27.5386 8.43313 27.886 8.47896 28.1841 8.65111C28.4823 8.82326 28.6956 9.10124 28.7847 9.43383C28.8738 9.76641 28.8281 10.1138 28.656 10.412Z" fill="#8FBEDF"/>
</svg>
